Coordinates
version=1
nRows=42
nColumns=38
inDegrees=no

Units are S.I. units (second, meters, Newtons, ...)
If the header above contains a line with 'inDegrees', this indicates whether rotational values are in degrees (yes) or radians (no).

endheader
time	pelvis_tilt	pelvis_list	pelvis_rotation	pelvis_tx	pelvis_ty	pelvis_tz	hip_flexion_r	hip_adduction_r	hip_rotation_r	knee_angle_r	ankle_angle_r	subtalar_angle_r	mtp_angle_r	hip_flexion_l	hip_adduction_l	hip_rotation_l	knee_angle_l	ankle_angle_l	subtalar_angle_l	mtp_angle_l	lumbar_extension	lumbar_bending	lumbar_rotation	arm_flex_r	arm_add_r	arm_rot_r	elbow_flex_r	pro_sup_r	wrist_flex_r	wrist_dev_r	arm_flex_l	arm_add_l	arm_rot_l	elbow_flex_l	pro_sup_l	wrist_flex_l	wrist_dev_l
5	0.521691	1.35455	0.819612	0.778827	1.03828	0.96593	0.313076	0.163003	-0.121914	0.31519	0.127236	0	0	0.413963	-0.185574	-0.144818	0.818496	0.150954	0	0	-0.0597062	0.128473	0.228146	0.412166	-0.233486	0.187957	1.60123	1.5708	0	0	0.489725	-0.227827	0.230974	1.40952	1.5708	0	0
5.01	0.513344	1.35431	0.824451	0.779504	1.04377	0.965777	0.308579	0.162434	-0.117309	0.31621	0.129934	0	0	0.423744	-0.18508	-0.144018	0.792295	0.14948	0	0	-0.0603365	0.127625	0.231935	0.418781	-0.23319	0.190218	1.59597	1.5708	0	0	0.495288	-0.227931	0.231715	1.40422	1.5708	0	0
5.02	0.507088	1.35601	0.835863	0.78115	1.04912	0.965588	0.303655	0.166374	-0.103327	0.319694	0.126993	0	0	0.433374	-0.189951	-0.147834	0.765678	0.152524	0	0	-0.0612316	0.123042	0.23052	0.424614	-0.231331	0.193568	1.59087	1.5708	0	0	0.50326	-0.226284	0.235724	1.39906	1.5708	0	0
5.03	0.496648	1.35435	0.836006	0.780593	1.05474	0.965378	0.299515	0.160225	-0.108447	0.318676	0.137107	0	0	0.442681	-0.183347	-0.141977	0.740733	0.14577	0	0	-0.0616515	0.125459	0.237209	0.433556	-0.232189	0.194597	1.58425	1.5708	0	0	0.507239	-0.227592	0.234127	1.39254	1.5708	0	0
5.04	0.486701	1.35429	0.844338	0.780991	1.06023	0.965064	0.296232	0.158181	-0.10644	0.321833	0.142219	0	0	0.45239	-0.18209	-0.141004	0.71546	0.14527	0	0	-0.0617371	0.124133	0.238343	0.441722	-0.23154	0.197066	1.57779	1.5708	0	0	0.513005	-0.22734	0.234678	1.38706	1.5708	0	0
5.05	0.4785	1.35428	0.851428	0.781351	1.06575	0.964732	0.292453	0.156353	-0.104138	0.324554	0.146546	0	0	0.461503	-0.181281	-0.141151	0.689832	0.143383	0	0	-0.0620088	0.122973	0.238763	0.450227	-0.231146	0.199588	1.57114	1.5708	0	0	0.51861	-0.227043	0.234953	1.38201	1.5708	0	0
5.06	0.47124	1.35442	0.857974	0.781676	1.07131	0.964398	0.288323	0.154506	-0.101678	0.326917	0.150634	0	0	0.469955	-0.180637	-0.142649	0.663909	0.139468	0	0	-0.0624757	0.121782	0.238836	0.458569	-0.230775	0.201838	1.5647	1.5708	0	0	0.524206	-0.226634	0.235726	1.37685	1.5708	0	0
5.07	0.463346	1.35459	0.86548	0.781968	1.07692	0.964046	0.284118	0.152446	-0.0994042	0.329095	0.154866	0	0	0.477914	-0.179863	-0.144917	0.637525	0.13297	0	0	-0.0626733	0.12039	0.238572	0.466479	-0.230679	0.203984	1.5585	1.5708	0	0	0.52957	-0.22617	0.236588	1.37155	1.5708	0	0
5.08	0.454556	1.35473	0.874062	0.782212	1.08261	0.963661	0.279988	0.150145	-0.0972544	0.331438	0.159073	0	0	0.485384	-0.178906	-0.147672	0.610859	0.124576	0	0	-0.0625322	0.118838	0.238043	0.474143	-0.230811	0.20664	1.55244	1.5708	0	0	0.534593	-0.225659	0.23724	1.36648	1.5708	0	0
5.09	0.446044	1.3548	0.882455	0.782439	1.08837	0.963233	0.275528	0.147983	-0.095208	0.33332	0.16292	0	0	0.492271	-0.178133	-0.151403	0.583825	0.114696	0	0	-0.0621802	0.117328	0.237492	0.481612	-0.231048	0.20975	1.54659	1.5708	0	0	0.539338	-0.225007	0.237378	1.36164	1.5708	0	0
5.1	0.437281	1.35454	0.891025	0.782665	1.09421	0.962746	0.271033	0.146109	-0.0928008	0.334718	0.16679	0	0	0.498786	-0.177731	-0.156252	0.556538	0.103929	0	0	-0.0613597	0.116004	0.237116	0.488914	-0.231421	0.213286	1.5409	1.5708	0	0	0.54392	-0.224011	0.237052	1.35664	1.5708	0	0
5.11	0.436825	1.35618	0.891613	0.782773	1.09993	0.962417	0.263741	0.144426	-0.0901833	0.33553	0.170639	0	0	0.502096	-0.177464	-0.162045	0.52871	0.092271	0	0	-0.0641171	0.114948	0.236841	0.497596	-0.232517	0.217607	1.53547	1.5708	0	0	0.549789	-0.222711	0.23681	1.35111	1.5708	0	0
5.12	0.437055	1.35804	0.891665	0.782853	1.10575	0.962088	0.255759	0.142748	-0.0873863	0.335577	0.174262	0	0	0.504336	-0.177119	-0.168931	0.500165	0.0804354	0	0	-0.0669743	0.113912	0.236527	0.505989	-0.234108	0.222637	1.52978	1.5708	0	0	0.555565	-0.221633	0.237054	1.345	1.5708	0	0
5.13	0.436282	1.3596	0.892988	0.78292	1.11165	0.96171	0.248139	0.141095	-0.0848653	0.335769	0.177467	0	0	0.50632	-0.17666	-0.176381	0.471179	0.0703033	0	0	-0.0690851	0.112888	0.235853	0.514177	-0.235478	0.22822	1.52343	1.5708	0	0	0.561007	-0.220894	0.237021	1.33913	1.5708	0	0
5.14	0.434369	1.36071	0.895637	0.782933	1.1176	0.961259	0.241379	0.139416	-0.0825391	0.336679	0.180818	0	0	0.508315	-0.17588	-0.183415	0.441861	0.063079	0	0	-0.0704592	0.111973	0.234765	0.522409	-0.236084	0.233414	1.51667	1.5708	0	0	0.566319	-0.2203	0.236647	1.3337	1.5708	0	0
5.15	0.430706	1.36141	0.90015	0.782885	1.12358	0.960736	0.235446	0.137562	-0.0801738	0.338034	0.184771	0	0	0.510348	-0.174469	-0.189418	0.412203	0.059171	0	0	-0.0712269	0.111087	0.233573	0.530598	-0.236377	0.238361	1.51018	1.5708	0	0	0.57165	-0.219789	0.235955	1.32829	1.5708	0	0
5.16	0.425936	1.36166	0.906002	0.782764	1.12961	0.960146	0.230272	0.135521	-0.078287	0.339922	0.189379	0	0	0.512428	-0.17248	-0.19358	0.382042	0.0577914	0	0	-0.071434	0.110455	0.232256	0.538772	-0.236846	0.243519	1.50429	1.5708	0	0	0.576918	-0.2193	0.235229	1.32276	1.5708	0	0
5.17	0.42072	1.36149	0.912399	0.782578	1.1357	0.959498	0.225643	0.133414	-0.0773599	0.342422	0.194524	0	0	0.514399	-0.170206	-0.195771	0.351366	0.0569873	0	0	-0.071131	0.110169	0.231009	0.546724	-0.237149	0.248073	1.49906	1.5708	0	0	0.582133	-0.218783	0.234862	1.31759	1.5708	0	0
5.18	0.414905	1.36093	0.919365	0.782332	1.14185	0.958811	0.221553	0.131188	-0.0771665	0.345325	0.199735	0	0	0.51653	-0.167774	-0.196833	0.320982	0.0554327	0	0	-0.0703599	0.110107	0.229977	0.553856	-0.23739	0.251405	1.49466	1.5708	0	0	0.587067	-0.218361	0.235477	1.31274	1.5708	0	0
5.19	0.408031	1.35994	0.927178	0.782074	1.14806	0.958084	0.217933	0.129	-0.0766758	0.348315	0.204537	0	0	0.518981	-0.165401	-0.197002	0.29125	0.0528605	0	0	-0.0689369	0.110172	0.229467	0.559854	-0.237934	0.254709	1.49118	1.5708	0	0	0.591452	-0.21822	0.236301	1.3079	1.5708	0	0
5.2	0.400808	1.35859	0.935262	0.781825	1.15434	0.957328	0.214747	0.126937	-0.0760741	0.351683	0.20959	0	0	0.521353	-0.163098	-0.196322	0.26163	0.0490903	0	0	-0.0669722	0.11034	0.229348	0.565018	-0.238594	0.258751	1.48812	1.5708	0	0	0.595487	-0.218243	0.236665	1.30307	1.5708	0	0
5.21	0.393638	1.35687	0.943175	0.781561	1.1607	0.956533	0.211767	0.125081	-0.0755304	0.354972	0.214968	0	0	0.523594	-0.160982	-0.194827	0.232244	0.0440483	0	0	-0.0644474	0.110709	0.229446	0.569675	-0.239446	0.263177	1.48485	1.5708	0	0	0.599446	-0.218195	0.237141	1.29828	1.5708	0	0
5.22	0.385649	1.35499	0.95186	0.781239	1.16716	0.955713	0.208803	0.123055	-0.0750572	0.357998	0.220196	0	0	0.52594	-0.158808	-0.193463	0.203963	0.0377495	0	0	-0.0615311	0.111093	0.229686	0.573867	-0.240438	0.267432	1.48175	1.5708	0	0	0.603434	-0.218135	0.238434	1.29336	1.5708	0	0
5.23	0.377968	1.35291	0.960247	0.78088	1.17368	0.954887	0.205716	0.121111	-0.074473	0.360523	0.225021	0	0	0.528269	-0.156837	-0.191906	0.176884	0.0300206	0	0	-0.058377	0.111562	0.230159	0.577274	-0.241145	0.270372	1.47904	1.5708	0	0	0.607545	-0.218152	0.240727	1.28826	1.5708	0	0
5.24	0.370797	1.35046	0.968142	0.780529	1.18023	0.95404	0.20262	0.119503	-0.0737624	0.362584	0.229506	0	0	0.530113	-0.154901	-0.188507	0.149742	0.0199656	0	0	-0.0549449	0.112207	0.230957	0.580095	-0.241979	0.272423	1.47675	1.5708	0	0	0.611953	-0.21808	0.243502	1.28304	1.5708	0	0
5.25	0.365314	1.34789	0.974252	0.780176	1.18685	0.953154	0.198998	0.118264	-0.0734661	0.364219	0.233951	0	0	0.531352	-0.153196	-0.183803	0.123042	0.00778448	0	0	-0.0515586	0.113192	0.231906	0.582629	-0.242227	0.273443	1.47442	1.5708	0	0	0.616471	-0.218067	0.24645	1.27785	1.5708	0	0
5.26	0.362731	1.34525	0.977404	0.779819	1.19356	0.952244	0.194821	0.117445	-0.0732743	0.365624	0.238372	0	0	0.531904	-0.152064	-0.177686	0.0969552	-0.00521619	0	0	-0.0484547	0.114827	0.233025	0.585226	-0.242469	0.27422	1.47229	1.5708	0	0	0.621165	-0.218046	0.249737	1.27288	1.5708	0	0
5.27	0.361519	1.34267	0.978789	0.779446	1.20036	0.951346	0.190401	0.116609	-0.0729936	0.367166	0.242604	0	0	0.532141	-0.151407	-0.171533	0.0729387	-0.0153097	0	0	-0.0455501	0.116732	0.234447	0.587656	-0.242599	0.274292	1.47025	1.5708	0	0	0.625832	-0.217878	0.252773	1.26798	1.5708	0	0
5.28	0.358896	1.34031	0.981059	0.779062	1.20724	0.950475	0.186088	0.11526	-0.0724392	0.369212	0.246587	0	0	0.532579	-0.150933	-0.166559	0.0523717	-0.0187685	0	0	-0.0425558	0.118236	0.23612	0.590026	-0.242094	0.273448	1.46802	1.5708	0	0	0.630132	-0.217682	0.255618	1.26322	1.5708	0	0
5.29	0.356328	1.33787	0.982706	0.778692	1.2142	0.949582	0.182009	0.113909	-0.0715499	0.37187	0.250417	0	0	0.532675	-0.150902	-0.160657	0.0338937	-0.0154299	0	0	-0.0393396	0.119827	0.238184	0.592232	-0.241386	0.272261	1.46584	1.5708	0	0	0.633833	-0.217531	0.258816	1.25888	1.5708	0	0
5.3	0.354255	1.33546	0.983259	0.77835	1.22129	0.948684	0.178043	0.112564	-0.0707189	0.375103	0.254317	0	0	0.532375	-0.151368	-0.154148	0.0175192	-0.00827414	0	0	-0.0359108	0.121468	0.240656	0.593649	-0.240607	0.270686	1.46353	1.5708	0	0	0.636947	-0.217394	0.26219	1.25467	1.5708	0	0
5.31	0.356797	1.33478	0.978982	0.77796	1.22833	0.947966	0.172219	0.111132	-0.0697122	0.378841	0.257888	0	0	0.529857	-0.151924	-0.147715	0.00324535	-0.00122886	0	0	-0.0352258	0.122997	0.243444	0.595818	-0.240859	0.270325	1.46136	1.5708	0	0	0.640678	-0.217029	0.265549	1.2503	1.5708	0	0
5.32	0.358319	1.33463	0.975754	0.777511	1.23543	0.947356	0.166192	0.109015	-0.0683774	0.382798	0.26096	0	0	0.527487	-0.152114	-0.142274	0	0.00388631	0	0	-0.0348468	0.12385	0.245858	0.597657	-0.240875	0.27006	1.45897	1.5708	0	0	0.644101	-0.216594	0.268651	1.24604	1.5708	0	0
5.33	0.357852	1.33476	0.974574	0.777022	1.24261	0.946819	0.160276	0.106232	-0.0665676	0.386964	0.263529	0	0	0.525874	-0.151783	-0.13763	0	0.00694684	0	0	-0.0344177	0.123915	0.247882	0.599129	-0.240465	0.269308	1.4566	1.5708	0	0	0.647133	-0.216011	0.27117	1.24248	1.5708	0	0
5.34	0.356218	1.33503	0.974701	0.776489	1.24984	0.946307	0.154673	0.103017	-0.0646472	0.391744	0.26576	0	0	0.524751	-0.15095	-0.132408	0	0.00851077	0	0	-0.0339521	0.123537	0.249654	0.600467	-0.240474	0.268209	1.45464	1.5708	0	0	0.649778	-0.215152	0.273277	1.23976	1.5708	0	0
5.35	0.353642	1.33551	0.975903	0.775898	1.25716	0.945823	0.149526	0.0993138	-0.0627822	0.397522	0.267648	0	0	0.52401	-0.149724	-0.125971	0	0.0095063	0	0	-0.0334746	0.122753	0.251219	0.601554	-0.240446	0.266368	1.45326	1.5708	0	0	0.651891	-0.213938	0.274934	1.23757	1.5708	0	0
5.36	0.349601	1.3362	0.978717	0.775247	1.26457	0.945376	0.145003	0.0949858	-0.0609454	0.404526	0.269309	0	0	0.523627	-0.148026	-0.117711	0	0.0106984	0	0	-0.032846	0.121478	0.252517	0.602076	-0.240197	0.264052	1.45214	1.5708	0	0	0.653349	-0.212405	0.276073	1.23579	1.5708	0	0
5.37	0.344067	1.3372	0.983041	0.774551	1.27209	0.944988	0.141181	0.0900093	-0.058636	0.413024	0.270772	0	0	0.523194	-0.145755	-0.107581	0	0.0126798	0	0	-0.0321075	0.119677	0.253649	0.602017	-0.240187	0.262178	1.45086	1.5708	0	0	0.654253	-0.21059	0.27662	1.23442	1.5708	0	0
5.38	0.335952	1.33847	0.990077	0.773813	1.27975	0.944632	0.138157	0.084179	-0.0563556	0.423078	0.271753	0	0	0.523004	-0.142509	-0.0965916	0.00600103	0.0165085	0	0	-0.0310064	0.117136	0.254542	0.601741	-0.240586	0.261247	1.44923	1.5708	0	0	0.654771	-0.208564	0.277236	1.2332	1.5708	0	0
5.39	0.192922	1.32945	1.13857	0.771215	1.28565	0.9411	0.17136	0.0488839	-0.0662527	0.453393	0.289911	0	0	0.54911	-0.112292	-0.102151	0.0100256	0.00716543	0	0	-0.00340228	0.0893237	0.245186	0.601575	-0.23902	0.258794	1.44767	1.5708	0	0	0.658457	-0.210057	0.282331	1.23373	1.5708	0	0
5.4	0.255003	1.34668	1.07223	0.772026	1.29597	0.942536	0.150776	0.0579899	-0.035375	0.482054	0.286969	0	0	0.523741	-0.117014	-0.0739662	0.0353514	0.031006	0	0	-0.0219539	0.0935345	0.251557	0.598195	-0.239178	0.256515	1.44519	1.5708	0	0	0.657201	-0.208626	0.28444	1.23226	1.5708	0	0
5.41	0.244158	1.34887	1.08231	0.771153	1.30418	0.942141	0.148671	0.0515108	-0.0303842	0.496165	0.286034	0	0	0.521313	-0.111002	-0.0603008	0.0505884	0.0384649	0	0	-0.0202571	0.0899364	0.252382	0.596796	-0.240611	0.255331	1.44342	1.5708	0	0	0.656813	-0.206172	0.284934	1.23115	1.5708	0	0
